<svg xmlns="http://www.w3.org/2000/svg" viewBox="0 0 148.38 27.73"><defs><style>.cls-1{fill:#fff;}</style></defs><g id="Layer_2" data-name="Layer 2"><g id="Layer_1-2" data-name="Layer 1"><g id="Layer_2-2" data-name="Layer 2"><g id="Layer_1-2-2" data-name="Layer 1-2"><g id="Layer_2-2-2" data-name="Layer 2-2"><g id="Layer_1-2-2-2" data-name="Layer 1-2-2"><g id="Layer_2-2-2-2" data-name="Layer 2-2-2"><g id="Layer_1-2-2-2-2" data-name="Layer 1-2-2-2"><g id="Layer_2-2-2-2-2" data-name="Layer 2-2-2-2"><g id="Layer_1-2-2-2-2-2" data-name="Layer 1-2-2-2-2"><g id="Layer_2-2-2-2-2-2" data-name="Layer 2-2-2-2-2"><g id="Layer_1-2-2-2-2-2-2" data-name="Layer 1-2-2-2-2-2"><path class="cls-1" d="M4.31.56A16.84,16.84,0,0,1,0,.18,30.13,30.13,0,0,1,.35,5.63v2h.89l.59-4.94c0-.62.41-.93,1.09-.93h5V25.91c0,.34-.18.51-.55.51H4v.76H15v-.76H11.66q-.54,0-.54-.51V1.74h5a1,1,0,0,1,1.09.9h0l.58,4.94h.89v-2A30.54,30.54,0,0,1,19,.18a16,16,0,0,1-4.31.38Z"/><path class="cls-1" d="M37.08,1.32H38.9c.37,0,.55.2.55.59V7.48l-11.35,10V1.91c0-.39.18-.59.54-.59h1.83V.56H22.54v.76h1.83q.54,0,.54.51v24c0,.39-.18.59-.54.59H22.54v.76h7.93v-.76H28.64c-.36,0-.54-.2-.54-.59V19.4l11.35-10V25.83c0,.39-.18.59-.55.59H37.08v.76H45v-.76H43.18c-.37,0-.55-.2-.55-.59v-24c0-.34.18-.51.55-.51H45V.56H37.08Z"/><path class="cls-1" d="M60.8,0a10,10,0,0,0-8,3.68q-3.09,3.69-3.09,10.14t3,10.18a10.63,10.63,0,0,0,15,1.16h0a10.39,10.39,0,0,0,1.1-1.1Q71.9,20.4,71.9,13.92T68.85,3.73A10,10,0,0,0,60.8,0Zm5.58,23.12q-2.25,3.42-5.6,3.42c-2.23,0-4.08-1.14-5.57-3.42S53,17.79,53,13.87s.75-7,2.24-9.3,3.31-3.42,5.54-3.42,4.1,1.14,5.6,3.42,2.25,5.38,2.25,9.3-.75,7-2.25,9.3Z"/><path class="cls-1" d="M90.09,22.41,82.16.56H76.6v.76h1.83q.54,0,.54.51v24c0,.39-.18.59-.54.59H76.6v.76h6.06v-.76H80.84c-.37,0-.55-.2-.55-.59V5l8.12,22.23h1.33L97.86,4.32V25.91c0,.34-.18.51-.55.51H95.49v.76h7.93v-.76h-1.83q-.54,0-.54-.51v-24c0-.39.18-.59.54-.59h1.83V.56H97.86Z"/><path class="cls-1" d="M126.93,25.83,118.38.56h-1.32l-8.55,25.27a.73.73,0,0,1-.74.59h-1.44v.76h5.87v-.76h-2.53l2.72-8.16h8.55l2.72,8.16h-2.52v.76h8v-.76h-1.43A.72.72,0,0,1,126.93,25.83ZM112.82,17l3.89-11.54L120.55,17Z"/><path class="cls-1" d="M147.23,16.34a8.58,8.58,0,0,0-3.51-3l-4.67-2.24a5.68,5.68,0,0,1-3.45-5.34,4.52,4.52,0,0,1,1.26-3.13,4.63,4.63,0,0,1,3.57-1.37,5.58,5.58,0,0,1,3.93,1.54,7.47,7.47,0,0,1,1.92,4.79h.7V.3h-.74v.85c0,.59-.21.89-.55.89a2.49,2.49,0,0,1-1-.47A8,8,0,0,0,140.34,0a6.88,6.88,0,0,0-5.48,2.22A8,8,0,0,0,133,7.57a7.08,7.08,0,0,0,4.2,6.55l4.62,2.24c2.34,1.13,3.5,2.79,3.5,5A5.11,5.11,0,0,1,144,25a4.89,4.89,0,0,1-4,1.51,6.42,6.42,0,0,1-6.7-6.12.81.81,0,0,1,0-.22h-.7v7.06h.74v-.59c0-.59.23-.89.62-.89a3.31,3.31,0,0,1,1.17.47,9.82,9.82,0,0,0,5.13,1.52,8,8,0,0,0,5.91-2.2,7.29,7.29,0,0,0,1.07-9.15Z"/></g></g></g></g></g></g></g></g></g></g></g></g></svg>