<svg xmlns="http://www.w3.org/2000/svg" viewBox="0 0 136.553 25.709"><g id="Layer_2" data-name="Layer 2"><g id="Layer_1-2" data-name="Layer 1"><path d="M14.517.508c-.228,0-.456-.006-.7-.016H4.3C4.094.5,3.887.5,3.681.5A15.254,15.254,0,0,1,.429.154L0,.061.068.494A26.837,26.837,0,0,1,.385,5.385V7.5H1.767L2.34,2.721c0-.148,0-.542.7-.542H7.318V23.758c0,.112,0,.162-.2.162H3.728v1.288H14.4V23.92H11.043c-.194,0-.194-.05-.194-.162V2.16l4.366,0a.614.614,0,0,1,.614.564l.562,4.74h1.381V5.34a27.218,27.218,0,0,1,.29-4.848l.065-.433-.427.1A14.565,14.565,0,0,1,14.517.508Z"/><path d="M34.024,1.78h1.967c.137,0,.2.01.2.235V6.924l-9.8,8.537V2.015c0-.224.067-.235.2-.235H28.57V.492H20.708V1.78h1.976c.194,0,.194.051.194.162V23.685c0,.225-.066.235-.194.235H20.708v1.288H28.57V23.92H26.594c-.128,0-.2-.01-.2-.235V18l9.8-8.538V23.685c0,.226-.067.235-.2.235H34.024v1.288h7.853V23.92H39.911c-.138,0-.2-.009-.2-.235V1.942c0-.111,0-.162.2-.162h1.966V.492H34.024Z"/><path d="M56.307.008l-.252,0-.236,0a9.456,9.456,0,0,0-7.327,3.443c-1.925,2.274-2.9,5.429-2.9,9.38s.947,7.115,2.821,9.418A10.1,10.1,0,0,0,62.571,23.3a9.936,9.936,0,0,0,1.041-1.031c1.926-2.256,2.9-5.412,2.9-9.381s-.963-7.135-2.862-9.412A9.452,9.452,0,0,0,56.307.008Zm4.819,20.755-.218.328a5.707,5.707,0,0,1-4.878,2.965c-1.947,0-3.533-.97-4.851-2.964C49.85,19.081,49.2,16.385,49.2,12.85a14.981,14.981,0,0,1,2-8.261c1.3-1.994,2.883-2.963,4.823-2.963A5.778,5.778,0,0,1,60.908,4.59a14.824,14.824,0,0,1,2.011,8.26A15.135,15.135,0,0,1,61.126,20.763Z"/><path d="M82.87,19.708,75.821.492h-5.6V1.78h1.976c.195,0,.195.051.195.162V23.685c0,.225-.067.235-.195.235H70.218v1.288h6.15V23.92H74.4c-.138,0-.2-.009-.2-.235V6.447l6.927,18.761h1.638L89.689,5.921V23.758c0,.112,0,.162-.2.162H87.519v1.288h7.862V23.92H93.405c-.2,0-.2-.05-.2-.162V2.015c0-.224.067-.235.2-.235h1.976V.492h-5.6Z"/><path d="M116.9,23.588,109,.492h-1.639l-7.91,23.135a.374.374,0,0,1-.383.293H97.447v1.288h5.975V23.92h-2.2l2.289-6.793h7.4L113.2,23.92h-2.19v1.288h7.927V23.92l-1.675,0A.377.377,0,0,1,116.9,23.588Zm-12.788-8.175,3.141-9.22,3.1,9.22Z"/><path d="M135.465,14.925l-.1-.137h-.007a8.137,8.137,0,0,0-3.243-2.689l-4.29-2.035A4.825,4.825,0,0,1,124.853,5.5a3.767,3.767,0,0,1,1.067-2.624,3.983,3.983,0,0,1,2.8-1.161c.078,0,.156,0,.333.007a4.793,4.793,0,0,1,3.3,1.3,6.438,6.438,0,0,1,1.681,4.146l.008.291h1.232V.256H134v1.07c0,.119-.015.507-.14.513a2,2,0,0,1-.8-.374A7.428,7.428,0,0,0,128.913.012Q128.71,0,128.508,0a6.624,6.624,0,0,0-4.862,2.129,7.479,7.479,0,0,0-1.773,5.01,6.7,6.7,0,0,0,4.015,6.208l4.233,2.029c2.042.976,3.035,2.369,3.035,4.268a4.31,4.31,0,0,1-1.126,3.037,4.22,4.22,0,0,1-3.038,1.294c-.127,0-.254-.006-.423-.018-.085,0-.17,0-.254,0a5.549,5.549,0,0,1-5.571-5.295.344.344,0,0,1,0-.111l.05-.344h-1.289v7h1.278v-.834c0-.506.195-.506.213-.511a2.7,2.7,0,0,1,.967.385,9.356,9.356,0,0,0,4.843,1.422c.124.006.372.009.372.009a7.643,7.643,0,0,0,5.264-2.085A6.878,6.878,0,0,0,135.465,14.925Z"/></g></g></svg>