<svg xmlns="http://www.w3.org/2000/svg" version="1.1" xmlns:xlink="http://www.w3.org/1999/xlink" xmlns:svgjs="http://svgjs.com/svgjs" width="48" height="48"><svg version="1.1" id="SvgjsSvg1000" xmlns="http://www.w3.org/2000/svg" xmlns:xlink="http://www.w3.org/1999/xlink" x="0px" y="0px" viewBox="0 0 48 48" style="enable-background:new 0 0 48 48;" xml:space="preserve">
<style type="text/css">
	.st0{fill:#FFFFFF;}
</style>
<rect x="0" y="0" width="48" height="48"></rect>
<path class="st0" d="M17,7.4c-2.8,0-4.7-0.2-5.8-0.5c0.3,1.5,0.5,3.8,0.5,6.9v2.5h1.2l0.8-6.3c0.1-0.8,0.6-1.2,1.5-1.2h6.8v30.6
	c0,0.4-0.3,0.6-0.7,0.6h-4.6v1h14.9v-1h-4.6c-0.5,0-0.7-0.2-0.7-0.6V8.9h6.8c0.9,0,1.4,0.4,1.5,1.2l0.8,6.3h1.2v-2.5
	c0-3.1,0.2-5.4,0.5-6.9c-1.1,0.3-3.1,0.5-5.8,0.5L17,7.4L17,7.4z"></path>
</svg><style>@media (prefers-color-scheme: light) { :root { filter: none; } }
</style></svg>