<?xml version="1.0" standalone="no"?>
<!DOCTYPE svg PUBLIC "-//W3C//DTD SVG 20010904//EN"
 "http://www.w3.org/TR/2001/REC-SVG-20010904/DTD/svg10.dtd">
<svg version="1.0" xmlns="http://www.w3.org/2000/svg"
 width="700.000000pt" height="700.000000pt" viewBox="0 0 700.000000 700.000000"
 preserveAspectRatio="xMidYMid meet">
<metadata>
Created by potrace 1.14, written by Peter Selinger 2001-2017
</metadata>
<g transform="translate(0.000000,700.000000) scale(0.100000,-0.100000)"
fill="#000000" stroke="none">
<path d="M0 3500 l0 -3500 3500 0 3500 0 0 3500 0 3500 -3500 0 -3500 0 0
-3500z m1823 2460 c226 -34 505 -40 1847 -43 1348 -2 1391 -1 1622 39 49 8 95
17 105 21 14 5 15 1 9 -28 -40 -194 -57 -437 -63 -906 l-6 -433 -88 0 c-49 0
-89 3 -89 8 -1 56 -123 950 -133 974 -18 43 -67 84 -115 98 -23 6 -229 10
-554 10 l-518 0 0 -2242 c0 -1234 4 -2248 8 -2254 20 -31 54 -34 406 -34 l356
0 0 -75 0 -75 -1090 0 -1091 0 3 73 3 72 363 5 364 5 24 28 24 28 -2 2242 -3
2242 -515 0 c-283 0 -532 -4 -553 -8 -50 -11 -114 -69 -127 -116 -5 -20 -34
-236 -65 -481 -31 -245 -58 -455 -61 -467 -4 -22 -9 -23 -87 -23 l-83 0 -12
468 c-11 444 -25 643 -56 825 l-13 79 31 -7 c17 -3 88 -15 159 -25z"/>
</g>
</svg>
