<?xml version="1.0" standalone="no"?>
<!DOCTYPE svg PUBLIC "-//W3C//DTD SVG 20010904//EN"
 "http://www.w3.org/TR/2001/REC-SVG-20010904/DTD/svg10.dtd">
<svg version="1.0" xmlns="http://www.w3.org/2000/svg"
 width="4384.000000pt" height="4384.000000pt" viewBox="0 0 4384.000000 4384.000000"
 preserveAspectRatio="xMidYMid meet">
<metadata>
Created by potrace 1.14, written by Peter Selinger 2001-2017
</metadata>
<g transform="translate(0.000000,4384.000000) scale(0.100000,-0.100000)"
fill="#000000" stroke="none">
<path d="M17738 26035 c-2 -2 -43 -6 -93 -9 -49 -4 -97 -9 -105 -11 -8 -2 -35
-6 -60 -9 -51 -6 -93 -13 -130 -22 -14 -3 -39 -8 -55 -10 -17 -2 -89 -20 -160
-40 -72 -19 -134 -37 -140 -38 -12 -2 -91 -31 -165 -59 -30 -12 -57 -22 -60
-23 -25 -5 -312 -146 -365 -179 -22 -14 -47 -28 -55 -32 -13 -5 -166 -104
-195 -125 -220 -161 -418 -346 -584 -548 -125 -152 -118 -144 -161 -205 -19
-27 -37 -52 -40 -55 -3 -3 -21 -30 -40 -60 -19 -30 -40 -61 -47 -68 -7 -7 -13
-17 -13 -21 0 -4 -24 -48 -53 -97 -29 -49 -59 -104 -66 -121 -8 -18 -17 -33
-22 -33 -5 0 -9 -6 -9 -13 0 -6 -15 -44 -34 -82 -47 -98 -129 -295 -129 -312
0 -7 -4 -13 -9 -13 -4 0 -8 -9 -8 -20 0 -11 -4 -28 -9 -38 -9 -16 -23 -54 -22
-59 1 -2 -8 -27 -18 -55 -16 -45 -49 -149 -57 -183 -1 -5 -7 -30 -13 -55 -7
-25 -13 -53 -16 -63 -2 -10 -7 -27 -10 -37 -3 -10 -8 -29 -10 -42 -5 -27 -13
-63 -21 -98 -6 -24 -18 -87 -28 -140 -2 -14 -10 -59 -16 -100 -6 -41 -13 -86
-15 -99 -3 -13 -7 -45 -10 -70 -4 -25 -8 -60 -11 -78 -5 -41 -16 -156 -19
-208 -1 -22 -3 -40 -4 -40 -7 0 -15 -271 -15 -530 -1 -272 5 -459 19 -615 2
-25 6 -70 9 -100 3 -30 10 -93 16 -140 6 -47 13 -98 15 -115 1 -16 6 -48 10
-70 4 -22 8 -49 10 -60 2 -11 6 -36 10 -55 3 -19 8 -46 10 -60 2 -14 7 -36 10
-50 3 -14 7 -36 10 -50 3 -14 7 -36 10 -50 3 -14 10 -43 14 -65 5 -22 16 -65
25 -97 8 -31 17 -67 20 -80 18 -90 159 -488 222 -625 51 -110 119 -245 172
-338 41 -71 184 -294 211 -327 6 -7 40 -51 77 -98 65 -84 279 -302 363 -370
24 -19 57 -47 75 -63 17 -15 49 -39 71 -54 22 -16 42 -31 45 -34 3 -4 52 -38
110 -76 187 -126 376 -227 573 -308 129 -53 322 -118 379 -129 15 -2 32 -7 38
-11 6 -4 22 -8 36 -11 14 -3 54 -11 88 -19 33 -8 77 -16 96 -19 19 -3 59 -10
89 -15 30 -6 56 -9 59 -6 3 2 12 0 22 -5 9 -5 44 -10 78 -12 34 -2 62 -5 62
-8 0 -8 531 -4 600 4 75 8 130 15 160 20 14 3 41 7 60 10 53 9 134 24 155 30
8 2 52 12 135 31 3 1 32 9 65 19 33 10 67 20 75 21 100 22 558 218 576 246 3
5 10 7 15 4 5 -4 9 -2 9 2 0 5 23 19 50 32 28 13 50 28 50 34 0 6 3 8 6 5 7
-7 283 177 301 201 7 9 13 12 13 6 0 -5 4 -5 8 2 4 6 25 26 47 43 103 81 323
293 390 375 17 20 40 48 53 63 39 45 126 163 183 247 85 125 246 408 237 417
-2 2 7 17 20 35 12 17 22 35 22 41 0 8 40 104 70 167 42 87 169 480 172 533 1
6 5 12 10 12 5 0 7 4 4 9 -3 4 -1 23 5 42 6 19 12 45 15 59 2 14 11 53 20 88
8 34 17 77 19 95 2 18 6 43 9 57 12 52 16 76 22 120 3 25 8 54 11 65 2 11 6
36 8 55 5 57 17 158 30 258 3 20 8 82 11 137 3 55 8 125 10 155 11 176 4 736
-11 894 -4 33 -8 84 -10 111 -6 72 -14 155 -19 190 -3 17 -8 59 -11 95 -4 36
-9 68 -11 71 -2 4 -6 24 -9 45 -8 55 -33 194 -40 224 -3 14 -8 40 -10 59 -3
18 -8 37 -11 42 -3 5 -7 22 -10 37 -2 15 -13 61 -24 102 -11 41 -23 89 -26
105 -3 17 -10 37 -15 46 -4 9 -5 19 -2 23 3 3 1 6 -6 6 -7 0 -10 4 -7 8 3 5
-6 39 -19 75 -13 37 -21 67 -17 67 3 0 1 5 -6 12 -7 7 -12 20 -12 30 0 10 -4
26 -10 36 -5 9 -26 60 -46 112 -37 97 -58 146 -100 236 -13 28 -24 56 -24 62
0 6 -3 12 -7 14 -5 2 -17 21 -28 43 -41 82 -108 201 -136 242 -16 23 -29 46
-29 52 0 6 -5 11 -11 11 -5 0 -7 5 -4 10 3 6 3 10 -2 10 -4 0 -21 21 -38 48
-16 26 -33 52 -38 57 -4 6 -27 35 -50 66 -103 136 -86 115 -175 219 -47 54
-238 247 -284 286 -115 98 -314 245 -370 273 -16 8 -28 18 -28 23 0 4 -5 8
-11 8 -6 0 -24 9 -40 21 -45 32 -337 178 -343 171 -3 -3 -6 1 -6 8 0 7 -3 11
-6 8 -3 -4 -24 2 -47 12 -40 17 -76 31 -87 35 -3 1 -12 5 -20 8 -132 57 -496
143 -682 163 -35 3 -79 8 -98 11 -36 4 -608 12 -612 8z m416 -529 c98 -14 151
-23 151 -26 0 -1 11 -3 25 -5 44 -6 236 -61 255 -73 6 -4 16 -7 24 -9 46 -6
355 -177 424 -233 7 -5 41 -33 77 -62 76 -61 199 -184 255 -254 22 -27 43 -51
46 -54 10 -9 136 -205 160 -250 13 -25 30 -51 37 -58 6 -7 12 -22 12 -32 0
-10 4 -20 9 -22 19 -7 254 -512 254 -545 0 -7 3 -13 7 -13 4 0 7 -6 8 -12 0
-7 19 -65 42 -128 23 -63 43 -122 45 -130 2 -8 13 -44 24 -80 22 -73 60 -212
67 -250 3 -14 7 -33 10 -42 5 -18 11 -46 19 -93 3 -16 8 -38 11 -47 6 -19 9
-34 19 -98 4 -25 9 -53 11 -64 2 -10 5 -37 8 -60 12 -95 27 -189 32 -197 3 -5
0 -9 -6 -9 -6 0 -8 -4 -5 -10 10 -15 13 -38 21 -155 10 -147 10 -979 -1 -1130
-10 -156 -13 -190 -15 -190 -1 0 -4 -16 -5 -36 -2 -33 -13 -118 -20 -164 -2
-11 -6 -37 -8 -57 -3 -20 -10 -61 -16 -90 -6 -29 -12 -64 -15 -78 -15 -91 -98
-423 -122 -490 -3 -8 -5 -17 -6 -20 0 -3 -6 -21 -14 -40 -8 -19 -15 -37 -15
-40 1 -7 -21 -73 -28 -85 -3 -5 -6 -16 -8 -24 -1 -12 -14 -46 -68 -186 -5 -11
-7 -23 -7 -27 1 -5 -3 -8 -10 -8 -6 0 -9 -3 -5 -6 3 -3 -3 -23 -14 -42 -10
-20 -19 -40 -19 -43 0 -3 -19 -46 -42 -95 -23 -49 -41 -92 -40 -96 1 -5 -2 -8
-7 -8 -7 0 -15 -16 -25 -50 -3 -12 -100 -176 -106 -180 -4 -3 -15 -21 -25 -40
-10 -19 -21 -37 -24 -40 -3 -3 -13 -18 -21 -35 -8 -16 -18 -34 -23 -40 -4 -5
-37 -50 -73 -99 -36 -49 -70 -94 -77 -101 -7 -7 -31 -32 -53 -56 -82 -87 -196
-187 -274 -239 -12 -8 -28 -20 -34 -26 -7 -6 -28 -19 -46 -29 -19 -10 -37 -21
-40 -24 -14 -19 -303 -154 -355 -165 -5 -2 -35 -10 -66 -20 -31 -9 -66 -19
-78 -21 -11 -3 -31 -8 -43 -11 -96 -25 -266 -41 -398 -38 -183 4 -256 14 -385
48 -33 9 -67 18 -75 20 -57 15 -282 115 -288 129 -2 4 -9 7 -15 7 -17 0 -142
84 -234 157 -106 84 -210 186 -326 322 -16 18 -62 78 -102 134 -41 56 -79 107
-85 114 -5 7 -10 15 -10 18 0 4 -13 26 -30 50 -16 24 -30 46 -30 49 0 3 -13
24 -28 48 -36 53 -158 304 -205 418 -31 74 -95 255 -102 285 -1 5 -5 17 -8 25
-15 41 -73 259 -82 311 -3 19 -9 43 -12 54 -4 11 -8 27 -9 35 -1 8 -4 25 -7
36 -3 12 -8 39 -11 60 -3 22 -8 50 -11 64 -2 14 -7 39 -10 55 -8 45 -35 239
-40 288 -3 23 -7 60 -10 82 -4 38 -11 122 -20 260 -14 212 -21 508 -11 523 3
6 2 13 -3 16 -9 6 -7 480 3 556 3 25 8 79 11 120 3 41 8 95 12 120 3 25 6 55
7 68 0 12 4 22 9 22 4 0 5 4 2 10 -5 8 0 49 19 147 3 11 8 43 12 70 7 52 8 56
25 123 6 25 12 54 14 65 2 11 8 35 13 53 6 17 8 32 6 32 -3 0 -2 6 2 12 5 7 9
19 9 28 1 8 7 31 13 50 6 19 25 82 42 140 17 58 32 110 34 115 2 6 4 13 5 17
2 4 11 31 22 60 11 29 22 58 23 63 2 6 7 19 11 30 5 11 17 43 27 70 10 28 24
61 30 75 6 14 14 34 19 45 23 58 55 127 85 189 19 38 34 74 34 82 0 7 3 14 8
16 4 2 17 23 30 48 32 66 95 180 117 215 37 57 120 170 127 173 5 2 8 10 8 17
0 7 3 15 8 17 4 2 29 30 56 63 48 58 222 235 281 285 17 14 55 43 85 65 30 22
57 42 60 45 21 24 261 149 326 170 21 7 44 15 49 19 6 3 12 6 15 7 3 0 25 6
50 14 53 16 57 17 90 23 14 3 25 6 25 7 0 2 9 4 145 23 91 13 303 15 384 3z"/>
<path d="M41079 26035 c-2 -2 -33 -6 -69 -9 -36 -4 -77 -8 -92 -11 -16 -3 -38
-7 -50 -9 -97 -17 -377 -97 -403 -115 -5 -4 -41 -20 -80 -36 -38 -16 -72 -32
-75 -36 -3 -3 -16 -10 -30 -14 -14 -4 -60 -30 -103 -56 -43 -27 -83 -49 -88
-49 -5 0 -9 -4 -9 -10 0 -5 -6 -10 -14 -10 -8 0 -16 -4 -18 -8 -1 -5 -25 -23
-52 -42 -121 -82 -269 -222 -366 -348 -33 -42 -68 -86 -76 -97 -9 -11 -21 -30
-27 -42 -5 -13 -14 -23 -19 -23 -4 0 -8 -6 -8 -13 0 -7 -8 -22 -17 -33 -10
-11 -29 -40 -42 -65 -38 -72 -95 -184 -96 -189 0 -3 -6 -14 -12 -26 -29 -52
-119 -303 -138 -384 -16 -71 -45 -212 -49 -240 -2 -19 -7 -55 -11 -80 -15
-111 -24 -375 -13 -386 4 -3 2 -18 -2 -34 -4 -16 -5 -31 -2 -35 3 -3 7 -27 8
-53 2 -67 13 -170 25 -220 5 -24 7 -47 4 -52 -3 -5 -1 -11 5 -15 5 -3 10 -16
10 -28 0 -12 16 -74 35 -137 45 -144 41 -131 50 -155 57 -142 116 -268 127
-273 5 -2 8 -8 8 -12 0 -12 70 -131 87 -148 7 -7 13 -17 13 -22 0 -5 6 -15 13
-22 7 -7 24 -29 37 -48 95 -136 330 -371 450 -450 12 -8 28 -20 34 -25 51 -47
241 -152 461 -255 50 -23 130 -62 178 -86 49 -24 95 -44 103 -44 8 0 14 -4 14
-10 0 -5 4 -10 9 -10 5 0 78 -33 162 -73 85 -41 157 -74 160 -73 4 1 16 -8 28
-18 12 -11 21 -17 21 -13 0 3 48 -18 108 -48 59 -29 157 -76 217 -105 61 -29
156 -74 211 -101 56 -27 107 -49 113 -49 6 0 11 -3 11 -8 0 -4 17 -15 38 -24
20 -10 60 -31 87 -48 28 -16 57 -33 65 -37 13 -6 56 -35 144 -97 44 -31 78
-60 186 -158 100 -91 243 -302 300 -443 23 -55 49 -134 53 -160 3 -17 8 -37
11 -45 6 -18 14 -64 24 -140 9 -69 9 -362 0 -415 -4 -22 -9 -57 -13 -78 -10
-68 -79 -292 -95 -307 -3 -3 -13 -23 -23 -45 -21 -45 -96 -174 -112 -191 -5
-6 -19 -24 -30 -39 -26 -37 -106 -128 -123 -138 -7 -4 -22 -18 -35 -31 -12
-13 -49 -43 -82 -67 -33 -24 -62 -46 -65 -49 -5 -5 -29 -19 -105 -61 -58 -32
-210 -96 -246 -103 -13 -3 -49 -12 -79 -20 -51 -14 -102 -23 -175 -32 -64 -8
-495 -3 -495 6 0 3 -21 5 -48 6 -52 0 -124 10 -192 25 -25 6 -56 13 -70 15
-27 6 -193 59 -225 73 -62 27 -224 107 -245 121 -14 9 -45 30 -70 46 -25 16
-49 32 -55 37 -85 64 -128 99 -169 137 -47 44 -68 65 -155 160 -50 54 -178
244 -216 320 -16 30 -32 62 -37 70 -4 8 -13 26 -18 40 -6 14 -13 32 -17 40 -3
8 -7 17 -7 20 -1 3 -4 10 -8 15 -19 32 -82 258 -93 340 -3 17 -7 41 -10 55 -4
21 -17 155 -17 185 0 6 3 37 7 71 l7 61 -207 0 c-191 0 -206 -2 -202 -18 3 -9
1 -22 -3 -29 -4 -7 -4 -26 0 -41 5 -16 5 -42 0 -59 -5 -16 -5 -32 -1 -34 8 -5
6 -105 -2 -113 -3 -2 -1 -18 3 -34 5 -16 5 -42 0 -59 -5 -16 -5 -32 -1 -34 8
-5 6 -105 -2 -113 -3 -2 -1 -18 3 -34 5 -16 5 -42 0 -59 -5 -16 -5 -32 -1 -34
8 -5 6 -105 -2 -113 -3 -2 -1 -18 3 -34 5 -16 5 -42 0 -59 -5 -16 -5 -32 -1
-34 8 -5 6 -105 -2 -113 -3 -2 -1 -18 3 -34 5 -16 5 -42 0 -59 -5 -16 -5 -32
-1 -34 4 -3 5 -29 3 -58 -4 -61 -4 -56 -1 -129 1 -30 -1 -61 -5 -67 -3 -6 -3
-13 2 -16 9 -5 8 -59 -2 -75 -4 -5 -3 -12 2 -15 9 -5 7 -70 -3 -86 -3 -6 -3
-10 2 -10 9 0 8 -104 -1 -119 -4 -5 -3 -12 2 -15 9 -5 8 -59 -2 -75 -4 -5 -3
-12 2 -15 9 -5 7 -70 -3 -86 -3 -6 -3 -10 2 -10 9 0 8 -104 -1 -119 -4 -5 -3
-12 2 -15 9 -5 8 -59 -2 -75 -4 -5 -3 -12 2 -15 9 -5 7 -70 -3 -85 -10 -17 29
-21 221 -21 l194 0 0 48 c2 314 10 367 58 379 42 10 209 -50 317 -114 52 -31
159 -94 180 -106 57 -31 246 -118 315 -144 30 -12 64 -24 75 -29 11 -4 23 -6
28 -6 4 1 7 -3 7 -9 0 -5 4 -8 10 -4 5 3 17 1 27 -4 47 -26 313 -94 453 -115
19 -3 46 -8 60 -10 73 -14 206 -26 333 -30 48 -2 90 -6 93 -8 3 -3 21 -2 40 2
19 5 37 4 40 -1 3 -5 9 -7 14 -4 4 3 66 7 136 10 70 3 135 7 143 9 9 3 43 7
75 11 72 8 307 59 356 78 50 19 186 61 193 59 4 -1 7 2 7 7 0 5 12 12 26 15
34 9 196 86 262 124 28 17 52 29 52 26 0 -2 6 0 13 6 25 22 148 100 156 100 5
0 11 4 13 8 2 5 44 40 93 78 118 90 326 297 377 376 9 14 23 32 30 39 19 21
58 77 58 84 0 3 8 14 18 25 9 10 28 41 42 67 13 26 28 50 31 53 21 15 165 342
183 415 2 6 9 30 16 55 17 59 21 71 25 95 2 11 4 20 5 20 5 0 39 196 48 270
13 116 5 480 -13 570 -2 11 -7 34 -10 50 -7 35 -27 136 -30 150 -1 6 -5 17 -8
25 -3 8 -13 42 -22 75 -9 33 -24 80 -33 105 -9 25 -17 47 -18 50 -1 7 -31 74
-65 150 -41 88 -135 253 -162 282 -12 13 -34 43 -50 66 -15 23 -32 42 -39 42
-6 0 -9 3 -5 6 3 4 1 12 -6 18 -7 7 -23 27 -37 46 -55 73 -297 308 -376 365
-15 11 -32 25 -38 30 -27 25 -157 115 -166 115 -6 0 -10 5 -10 10 0 6 -7 10
-15 10 -8 0 -15 3 -15 8 0 4 -10 12 -23 18 -12 6 -58 30 -102 55 -44 24 -141
73 -215 108 -74 35 -175 84 -224 108 -49 23 -95 43 -103 43 -7 0 -13 5 -13 10
0 6 -5 10 -10 10 -6 0 -58 23 -118 51 -59 28 -154 74 -212 101 -58 28 -152 72
-210 100 -58 27 -132 62 -165 78 -166 78 -288 136 -363 172 -183 87 -405 265
-528 423 -21 28 -41 52 -44 55 -24 22 -135 222 -178 320 -23 53 -60 165 -66
200 -3 14 -5 25 -6 25 -1 0 -3 8 -5 17 -2 9 -8 40 -15 70 -16 74 -33 360 -22
381 2 4 5 37 7 72 2 35 6 68 9 73 3 5 8 24 11 43 20 121 118 347 185 426 5 7
10 15 10 18 0 6 4 11 43 56 140 162 272 263 442 339 39 17 78 35 87 40 10 6
22 10 27 10 5 0 22 5 38 12 15 6 31 11 34 10 4 -1 22 3 40 9 19 5 45 12 59 14
57 8 94 16 103 22 6 3 7 1 3 -5 -5 -9 -1 -9 16 -3 31 12 358 10 358 -2 0 -5 6
-4 13 2 8 6 16 8 19 5 3 -3 30 -8 59 -11 63 -7 258 -56 324 -82 248 -96 452
-236 585 -401 25 -30 47 -57 50 -60 13 -11 128 -189 156 -240 17 -30 36 -64
42 -75 6 -11 20 -40 31 -65 55 -125 71 -164 71 -176 0 -8 4 -22 10 -32 8 -14
28 -76 46 -147 36 -134 62 -328 67 -497 1 -27 6 -48 12 -49 40 -3 363 -4 373
-1 9 3 12 243 12 1156 l0 1153 -204 0 -205 1 -1 -202 c-1 -213 -3 -247 -22
-283 -11 -22 -37 -30 -52 -16 -3 4 -15 8 -26 10 -34 5 -124 50 -185 92 -125
87 -223 151 -234 151 -6 0 -11 5 -11 10 0 6 -5 10 -11 10 -7 0 -28 10 -48 22
-20 13 -38 23 -41 23 -3 1 -45 20 -95 44 -49 24 -98 44 -107 46 -9 2 -25 8
-35 13 -33 17 -214 76 -268 88 -26 5 -155 33 -177 39 -9 2 -41 6 -70 9 -29 4
-69 9 -88 12 -41 6 -456 15 -461 9z"/>
<path d="M14 25986 c2 -18 6 -38 10 -45 4 -6 7 -21 6 -34 -1 -12 -1 -24 0 -27
3 -9 7 -35 14 -85 3 -27 8 -61 11 -75 3 -14 8 -52 11 -85 3 -33 8 -71 10 -85
3 -14 7 -47 9 -75 2 -27 6 -68 9 -90 8 -58 17 -160 21 -235 2 -36 7 -114 11
-175 4 -60 8 -382 9 -715 1 -333 3 -610 3 -616 2 -11 424 -15 435 -4 3 3 8 32
12 65 4 33 8 71 11 85 2 14 6 50 9 80 3 30 8 71 11 90 5 37 10 74 19 155 3 28
7 61 10 75 2 14 6 54 10 90 3 36 8 79 10 95 3 17 7 55 10 85 3 30 8 68 11 84
4 15 7 45 9 65 2 20 6 59 9 86 4 28 9 70 12 95 3 25 7 59 9 75 3 17 7 53 9 80
3 28 8 66 10 85 3 19 10 74 15 122 11 97 25 126 79 160 l37 23 583 5 c321 3
586 2 589 -3 2 -4 9 -5 15 -1 12 8 133 8 146 0 5 -3 12 -3 15 0 3 4 34 6 69 6
l63 0 1 -45 c1 -25 4 -53 7 -61 4 -9 3 -16 -1 -16 -9 0 -7 -374 2 -389 4 -6 4
-11 -1 -11 -4 0 -8 -90 -8 -200 0 -110 3 -200 7 -200 4 0 4 -10 0 -22 -9 -25
-8 -99 2 -123 3 -8 2 -15 -2 -15 -9 0 -7 -374 2 -389 4 -6 4 -11 -1 -11 -4 0
-8 -90 -8 -200 0 -110 3 -200 7 -200 4 0 4 -10 0 -22 -9 -25 -8 -99 2 -123 3
-8 2 -15 -2 -15 -9 0 -7 -374 2 -389 4 -6 4 -11 -1 -11 -4 0 -8 -90 -8 -200 0
-110 3 -200 7 -200 4 0 4 -10 0 -22 -9 -25 -8 -99 2 -123 3 -8 2 -15 -2 -15
-9 0 -7 -374 2 -389 4 -6 4 -11 -1 -11 -4 0 -8 -90 -8 -200 0 -110 3 -200 7
-200 4 0 4 -10 0 -22 -9 -25 -8 -99 2 -123 3 -8 2 -15 -2 -15 -9 0 -7 -374 2
-389 4 -6 4 -11 -1 -11 -4 0 -8 -54 -8 -120 0 -66 3 -120 7 -120 4 0 4 -10 0
-22 -9 -25 -8 -99 2 -123 3 -8 2 -15 -2 -15 -4 0 -7 -36 -7 -80 0 -44 3 -80 7
-80 4 0 5 -7 1 -16 -9 -24 -10 -86 -2 -116 4 -16 5 -28 1 -28 -4 0 -7 -36 -7
-80 0 -44 3 -80 7 -80 4 0 4 -10 0 -22 -9 -25 -8 -99 2 -123 3 -8 2 -15 -2
-15 -4 0 -7 -36 -7 -80 0 -44 3 -80 7 -80 4 0 5 -7 1 -16 -9 -24 -10 -86 -2
-116 4 -16 5 -28 1 -28 -4 0 -7 -36 -7 -80 0 -44 3 -80 7 -80 4 0 4 -10 0 -22
-9 -25 -8 -99 2 -123 3 -8 2 -15 -2 -15 -4 0 -7 -36 -7 -80 0 -44 3 -80 7 -80
4 0 5 -7 1 -16 -9 -24 -10 -86 -2 -116 4 -16 5 -28 1 -28 -4 0 -7 -36 -7 -80
0 -44 3 -80 7 -80 4 0 4 -10 0 -22 -9 -25 -8 -99 2 -123 3 -8 2 -15 -2 -15 -4
0 -7 -36 -7 -80 0 -44 4 -80 8 -80 5 0 5 -5 2 -10 -4 -6 -7 -33 -9 -60 -1 -27
-5 -53 -10 -57 -4 -4 -260 -9 -569 -9 -309 -1 -564 -2 -567 -3 -4 -1 -5 -376
-1 -403 1 -5 771 -8 1711 -8 l1710 0 0 40 c1 52 1 323 0 353 l0 22 -550 0
c-303 0 -559 3 -570 7 -19 7 -19 62 -17 3490 l2 3483 730 0 730 0 35 -25 c82
-57 97 -95 115 -290 3 -30 8 -73 11 -95 3 -22 7 -53 9 -70 2 -16 6 -52 9 -80
4 -27 9 -72 12 -100 3 -27 7 -66 10 -85 2 -19 7 -55 9 -80 3 -25 7 -58 9 -75
3 -16 8 -57 11 -90 4 -33 8 -71 11 -85 2 -14 6 -50 10 -80 6 -60 8 -83 25
-212 6 -48 8 -92 4 -98 -3 -5 -2 -10 3 -10 5 0 9 -6 9 -12 0 -23 13 -143 17
-163 3 -11 5 -27 5 -35 1 -13 32 -15 221 -15 l220 0 1 25 c0 14 1 313 1 665 0
352 2 644 5 648 2 4 6 54 9 110 2 56 6 127 9 157 9 109 15 179 20 212 2 18 7
63 10 100 2 37 7 82 11 100 7 38 10 63 18 133 3 28 8 61 11 75 3 14 7 45 10
69 2 24 7 52 10 62 8 23 8 23 -67 3 -33 -8 -63 -13 -66 -10 -3 3 -10 1 -17 -4
-6 -5 -28 -12 -48 -14 -20 -3 -53 -9 -74 -15 -21 -5 -58 -12 -83 -15 -25 -4
-58 -9 -75 -12 -16 -3 -41 -7 -55 -9 -14 -2 -25 -4 -25 -5 0 -1 -18 -3 -40 -4
-22 -2 -62 -7 -90 -10 -141 -18 -366 -29 -565 -27 -152 2 -3295 3 -3420 2 -72
-1 -321 8 -385 14 -27 2 -79 7 -115 10 -36 2 -76 7 -90 9 -14 2 -50 6 -80 10
-49 6 -83 12 -195 30 -16 3 -52 10 -80 16 -27 6 -66 13 -85 15 -19 3 -48 9
-65 14 -16 5 -44 12 -62 15 -31 5 -32 4 -29 -28z"/>
<path d="M6666 25874 c-8 -7 -11 -76 -10 -200 1 -104 2 -193 3 -199 1 -6 122
-10 340 -10 187 0 342 -3 346 -6 8 -9 8 -7028 0 -7062 -4 -15 -15 -28 -24 -28
-9 -1 -162 -2 -341 -3 l-325 -1 -1 -195 c0 -107 2 -201 4 -207 3 -10 265 -13
1262 -13 l1259 0 -2 207 -2 207 -337 1 c-185 0 -340 4 -344 8 -4 4 -8 21 -9
37 -1 16 -4 33 -8 36 -3 4 -2 14 3 24 5 10 7 20 3 23 -7 7 -10 117 -3 117 7 0
3 147 -4 165 -3 8 -1 17 4 20 6 3 6 15 0 29 -5 13 -6 27 -3 30 9 8 9 66 1 66
-4 0 -3 14 2 30 5 17 5 30 1 30 -4 0 -5 20 -1 45 4 25 3 48 -1 51 -5 2 -4 15
1 28 4 12 5 29 0 36 -5 7 -4 24 1 37 5 15 5 31 0 41 -6 11 -6 24 0 34 6 10 6
19 0 23 -7 3 -7 15 -1 30 6 15 6 27 0 30 -6 3 -6 15 0 30 6 15 6 27 0 30 -6 3
-6 15 0 30 5 13 5 27 1 30 -5 3 -5 20 -1 39 4 19 4 40 -1 47 -4 7 -3 21 2 30
6 11 5 20 -1 24 -6 3 -6 15 0 30 6 15 6 27 0 30 -6 3 -6 15 0 30 6 15 6 27 0
30 -6 3 -6 15 0 29 5 13 6 26 3 29 -7 7 -10 117 -3 117 7 0 3 147 -4 165 -3 8
-1 17 4 20 6 3 6 15 0 30 -5 13 -6 26 -2 29 9 5 8 53 -1 62 -3 3 -2 16 2 28 5
11 6 26 4 32 -2 7 15 27 39 45 23 19 50 41 59 49 31 29 162 145 169 150 10 6
138 119 162 143 10 9 20 17 23 17 2 0 14 10 27 23 13 12 50 45 82 72 63 54
134 115 175 154 14 13 43 37 64 55 21 17 49 40 61 51 12 11 54 47 91 80 38 33
81 71 96 85 15 14 48 43 75 65 26 22 52 45 58 50 6 6 42 37 81 70 38 33 82 71
97 85 15 14 37 34 51 45 13 11 52 45 87 75 34 30 72 63 84 73 12 10 48 42 81
71 33 30 119 104 190 166 72 62 156 136 189 164 32 28 63 56 70 61 133 116
174 152 187 165 9 8 38 33 64 55 27 22 53 45 59 50 6 6 45 39 86 74 41 36 80
70 85 75 6 6 37 33 70 61 33 27 69 58 80 70 11 11 65 58 120 105 55 47 107 92
115 100 32 30 143 125 154 132 8 5 11 -587 11 -2297 0 -2210 -1 -2305 -18
-2317 -14 -11 -90 -14 -348 -13 l-329 0 0 -35 c-1 -49 -1 -253 -1 -322 l1 -58
1260 0 1260 0 0 205 c0 113 -3 206 -7 206 -5 1 -155 2 -335 3 -253 1 -330 4
-340 14 -11 11 -13 663 -14 3543 -1 3361 0 3531 17 3540 10 5 160 9 348 9
l331 0 0 204 c0 154 -3 205 -12 208 -21 6 -2498 2 -2504 -4 -4 -5 -8 -280 -4
-390 0 -17 22 -18 328 -18 264 0 332 -3 347 -14 18 -13 19 -41 19 -826 l1
-812 -44 -37 c-24 -20 -53 -45 -66 -56 -57 -51 -142 -126 -165 -145 -14 -12
-54 -47 -89 -78 -35 -31 -73 -65 -85 -75 -126 -107 -158 -135 -221 -192 -18
-16 -57 -50 -86 -75 -100 -85 -403 -350 -465 -405 -12 -11 -43 -38 -70 -60
-26 -22 -67 -58 -92 -80 -49 -44 -53 -47 -137 -120 -32 -27 -63 -54 -69 -60
-18 -17 -149 -130 -174 -151 -13 -10 -36 -30 -51 -44 -15 -14 -55 -50 -90 -80
-35 -30 -72 -62 -81 -70 -9 -8 -41 -35 -69 -60 -29 -25 -63 -54 -75 -65 -12
-11 -49 -43 -81 -72 -64 -55 -80 -69 -164 -141 -29 -26 -63 -55 -75 -65 -11
-11 -45 -40 -75 -65 -30 -26 -69 -60 -87 -77 -17 -16 -51 -46 -74 -65 -23 -19
-52 -44 -64 -55 -12 -11 -48 -42 -80 -70 -33 -27 -83 -72 -112 -99 -29 -26
-62 -55 -74 -63 -11 -8 -31 -24 -43 -36 -56 -53 -87 -76 -88 -65 0 7 -2 26 -3
41 -1 16 2 31 6 33 5 3 5 10 2 16 -10 16 -11 100 -2 121 5 9 5 17 1 17 -4 0
-8 20 -8 45 0 25 4 45 8 45 4 0 4 8 0 18 -10 20 -9 64 1 81 4 6 3 11 -2 11 -8
0 -6 82 3 107 2 7 1 14 -3 17 -7 4 -8 54 -2 81 1 6 1 12 0 15 -6 16 -5 62 2
66 5 3 5 10 2 16 -9 15 -10 149 -1 155 4 2 4 9 1 15 -10 16 -11 148 -1 148 5
0 5 5 2 11 -9 14 -10 113 -1 128 4 6 4 11 -1 11 -9 0 -8 172 1 195 3 8 2 16
-2 19 -9 5 -6 81 3 96 3 6 3 10 -2 10 -9 0 -8 172 1 195 3 8 2 15 -2 15 -4 0
-7 23 -7 50 0 28 4 50 8 50 5 0 5 5 1 11 -9 16 -11 199 -1 199 4 0 4 8 -2 17
-5 10 -5 26 -1 39 5 12 6 25 3 28 -9 9 -10 58 -1 84 4 12 4 22 0 22 -6 0 -7
74 -1 90 1 3 0 10 -1 15 -6 27 -4 148 3 152 4 2 4 9 0 15 -8 14 -7 163 2 178
3 5 3 10 -2 10 -4 0 -8 23 -8 50 0 28 3 50 7 50 4 0 5 7 1 15 -9 24 -9 165 0
165 5 0 5 5 2 11 -9 14 -10 113 -1 128 4 6 4 11 -1 11 -9 0 -8 172 1 195 3 8
2 16 -2 19 -9 5 -6 81 3 96 3 6 3 10 -2 10 -10 0 -9 163 1 179 4 6 3 11 -2 11
-8 0 -6 82 3 107 2 7 1 14 -3 17 -7 4 -8 54 -2 81 1 6 1 12 0 15 -6 16 -5 62
2 66 5 3 5 10 2 16 -9 15 -10 149 -1 155 4 2 4 9 0 16 -8 13 -9 140 0 153 3 6
2 16 -3 24 -4 7 -4 24 1 37 5 12 6 23 3 23 -2 0 0 9 6 20 6 11 14 19 18 19 4
-1 156 -1 339 0 l331 1 0 198 c0 109 -3 203 -6 208 -10 14 -2492 12 -2506 -2z"/>
<path d="M22551 25880 c-4 -3 -7 -96 -7 -207 l0 -203 338 0 c259 0 339 -3 345
-12 14 -23 16 -39 14 -118 0 -19 -1 -55 -1 -80 0 -25 -1 -49 -2 -55 -1 -5 2
-21 6 -34 5 -13 4 -21 0 -18 -9 5 -9 -87 1 -136 2 -15 1 -26 -3 -23 -5 3 -6
-10 -4 -27 4 -36 4 -56 3 -107 -1 -19 -1 -57 -1 -85 0 -27 0 -72 0 -99 0 -27
3 -58 6 -69 3 -11 2 -17 -3 -14 -4 3 -7 -11 -5 -31 2 -21 3 -46 2 -57 -1 -11
-1 -26 0 -32 1 -27 2 -59 1 -93 0 -19 -1 -55 -1 -80 0 -25 -1 -49 -2 -55 -1
-5 2 -21 6 -34 5 -13 4 -21 0 -18 -9 5 -9 -87 1 -136 2 -15 1 -26 -3 -23 -5 3
-6 -10 -4 -27 4 -36 4 -56 3 -107 -1 -19 -1 -57 -1 -85 0 -27 0 -72 0 -99 0
-27 3 -58 6 -69 3 -11 2 -17 -3 -14 -4 3 -7 -11 -5 -31 2 -21 3 -46 2 -57 -2
-31 -1 -38 3 -60 2 -11 1 -33 -3 -50 -4 -17 -3 -41 1 -53 5 -13 4 -22 -2 -22
-6 0 -6 -6 -1 -17 5 -10 8 -27 6 -38 -4 -20 -4 -33 -4 -130 0 -27 0 -72 0 -99
0 -27 3 -58 6 -69 3 -11 2 -17 -3 -14 -4 3 -7 -11 -5 -31 2 -21 3 -46 2 -57
-1 -11 -1 -26 0 -32 1 -27 2 -59 1 -93 0 -19 -1 -55 -1 -80 0 -25 -1 -49 -2
-55 -1 -5 2 -21 6 -34 5 -13 4 -21 0 -18 -9 5 -9 -87 1 -136 2 -15 1 -26 -3
-23 -5 3 -6 -10 -4 -27 4 -36 4 -56 3 -107 -1 -19 -1 -57 -1 -85 0 -27 0 -72
0 -99 0 -27 3 -58 6 -69 3 -11 2 -17 -3 -14 -4 3 -7 -11 -5 -31 2 -21 3 -46 2
-57 -1 -11 -1 -26 0 -32 1 -27 2 -59 1 -93 0 -19 -1 -55 -1 -80 0 -25 -1 -49
-2 -55 -1 -5 2 -21 6 -34 5 -13 4 -21 0 -18 -9 5 -9 -87 1 -136 2 -15 1 -26
-3 -23 -5 3 -6 -10 -4 -27 4 -36 4 -56 3 -107 -1 -19 -1 -57 -1 -85 0 -27 0
-72 0 -99 0 -27 3 -58 6 -69 3 -11 2 -17 -3 -14 -4 3 -7 -11 -5 -31 2 -21 3
-46 2 -57 -2 -31 -1 -38 3 -60 2 -11 1 -33 -3 -50 -4 -17 -3 -41 1 -53 5 -13
4 -22 -2 -22 -6 0 -6 -6 -1 -17 5 -10 8 -27 6 -38 -4 -20 -4 -33 -4 -130 0
-27 0 -72 0 -99 0 -27 3 -58 6 -69 3 -11 2 -17 -3 -14 -4 3 -7 -11 -5 -31 2
-21 3 -46 2 -57 -1 -11 -1 -26 0 -32 1 -27 2 -59 1 -93 0 -19 -1 -55 -1 -80 0
-25 -1 -49 -2 -55 -1 -5 2 -21 6 -34 5 -13 4 -21 0 -18 -9 5 -9 -87 1 -136 2
-15 1 -26 -3 -23 -5 3 -6 -10 -4 -27 4 -36 4 -56 3 -107 -1 -19 -1 -57 -1 -85
0 -27 0 -72 0 -99 0 -27 3 -58 6 -69 3 -11 2 -17 -3 -14 -4 3 -7 -11 -5 -31 2
-21 3 -46 2 -57 -1 -11 -1 -26 0 -32 1 -27 2 -59 1 -93 0 -19 -1 -55 -1 -80 0
-25 -1 -49 -2 -55 -1 -5 2 -21 6 -34 5 -13 4 -21 0 -18 -9 5 -9 -87 1 -136 2
-15 1 -26 -3 -23 -5 3 -6 -10 -4 -27 4 -36 4 -56 3 -107 -1 -19 -1 -57 -1 -85
0 -27 0 -72 0 -99 0 -27 3 -58 6 -69 3 -11 2 -17 -3 -14 -4 3 -7 -11 -5 -31
11 -124 32 -117 -356 -118 -180 -1 -330 -2 -333 -3 -3 0 -5 -93 -5 -206 l0
-205 986 0 986 0 0 207 -1 207 -331 1 c-251 0 -335 3 -347 13 -12 11 -15 52
-15 270 -1 141 -2 262 -3 267 -1 6 0 15 1 20 2 12 2 206 0 220 -1 6 -2 14 0
20 2 11 2 206 -1 220 -1 6 0 15 1 20 2 12 2 206 0 220 -1 6 -2 14 0 20 2 11 2
206 -1 220 -1 6 0 15 1 20 2 12 2 206 0 220 -1 6 -1 15 0 20 2 12 2 1326 -1
1340 -1 6 0 15 1 20 2 12 2 206 0 220 -1 6 -2 14 0 20 2 11 2 206 -1 220 -1 6
0 15 1 20 2 12 2 206 0 220 -1 6 -2 14 0 20 2 11 2 206 -1 220 -1 6 0 15 1 20
2 12 2 206 0 220 -1 6 -1 15 0 20 1 6 2 291 2 634 0 344 4 618 8 610 8 -13
109 -283 114 -304 4 -13 14 -39 37 -92 10 -24 15 -43 12 -43 -3 0 -1 -6 5 -12
5 -7 13 -28 17 -45 3 -18 10 -33 14 -33 4 0 8 -6 8 -12 0 -7 26 -83 57 -168
32 -85 59 -159 60 -165 2 -5 8 -23 14 -38 7 -16 12 -31 12 -34 0 -3 6 -19 14
-36 7 -18 18 -45 24 -62 6 -16 13 -39 18 -50 4 -11 8 -24 10 -30 2 -5 33 -89
69 -185 37 -96 68 -179 69 -185 2 -5 9 -23 15 -40 7 -16 14 -34 15 -40 2 -5 9
-23 15 -40 7 -16 14 -37 16 -45 2 -8 12 -36 23 -62 12 -25 25 -61 31 -80 5
-18 21 -64 36 -103 15 -38 30 -81 35 -95 4 -14 14 -38 21 -55 7 -16 13 -32 13
-35 2 -10 88 -245 96 -265 8 -18 30 -77 90 -240 10 -27 21 -59 26 -70 32 -87
46 -126 88 -240 26 -71 60 -164 76 -205 16 -41 45 -119 64 -172 62 -170 107
-291 126 -343 21 -59 31 -88 32 -95 0 -3 6 -16 13 -30 14 -26 26 -57 30 -76 4
-15 84 -232 100 -269 7 -16 16 -41 20 -55 3 -14 10 -34 14 -45 24 -59 30 -75
49 -125 11 -30 57 -156 102 -280 45 -124 86 -234 91 -245 5 -11 18 -47 30 -80
11 -33 23 -67 26 -75 4 -8 7 -17 8 -20 1 -3 6 -16 12 -30 6 -14 25 -65 42
-115 18 -49 36 -99 41 -110 18 -43 62 -166 64 -180 1 -8 8 -21 14 -27 7 -7 12
-19 12 -29 0 -15 24 -82 56 -156 8 -17 14 -37 14 -45 0 -7 7 -24 16 -36 8 -12
13 -22 10 -22 -2 0 7 -28 21 -62 13 -35 26 -67 27 -73 1 -5 8 -27 15 -47 l13
-38 264 0 c203 0 266 3 269 13 2 6 18 50 35 97 17 47 32 90 34 95 4 13 8 25
45 125 18 47 34 94 36 105 3 11 9 29 14 40 12 25 113 306 115 320 2 11 23 68
37 100 5 11 20 52 33 90 13 39 44 126 69 195 24 69 70 197 101 285 32 88 60
167 63 175 4 8 7 17 8 20 4 11 18 48 36 94 10 27 19 52 19 57 0 4 5 20 12 36
6 15 12 33 14 38 4 16 234 658 244 680 4 11 13 34 18 50 6 17 27 75 47 130 20
55 45 126 56 158 10 32 22 64 26 70 4 7 8 17 9 22 1 6 26 75 54 155 29 80 72
199 95 265 23 66 64 179 90 250 26 72 47 136 48 143 0 6 4 12 9 12 4 0 8 6 8
14 0 13 72 219 151 431 17 44 32 87 33 95 4 13 15 44 42 115 4 11 8 22 8 25 1
3 5 11 9 18 5 6 6 12 2 12 -3 0 0 10 7 23 6 12 13 27 14 32 5 20 94 266 99
276 4 5 8 17 10 26 2 10 18 56 35 103 17 47 54 148 81 225 28 77 53 147 56
155 3 8 7 20 9 25 6 19 61 170 67 185 4 8 20 53 36 100 16 47 45 130 66 185
20 55 43 120 51 145 8 25 19 52 24 61 4 9 14 35 20 58 6 22 14 41 18 41 12 0
4 -5732 -8 -5744 -8 -8 -117 -11 -348 -11 l-337 0 -1 -195 c0 -107 2 -201 4
-207 3 -10 265 -13 1261 -13 l1258 0 1 193 c0 105 -1 199 -3 207 -4 13 -48 15
-322 15 -175 -1 -329 2 -343 5 -22 6 -25 12 -25 48 0 23 -2 42 -5 42 -3 0 -5
11 -5 25 0 14 4 25 8 25 5 0 5 4 2 10 -9 15 -12 80 -3 80 4 0 3 11 -2 25 -6
16 -6 25 0 25 5 0 6 10 2 23 -9 27 -9 48 1 64 4 6 3 14 -2 18 -6 3 -7 15 -2
28 5 12 5 31 1 42 -4 11 -3 25 2 32 5 7 5 14 -1 17 -6 4 -7 16 -2 29 5 12 5
31 1 42 -4 11 -3 28 2 38 5 10 5 17 -1 17 -5 0 -6 14 -1 34 4 19 4 40 -1 47
-4 7 -3 21 2 30 6 11 5 20 -1 24 -6 4 -6 15 0 30 5 14 6 25 2 25 -4 0 -7 11
-7 25 0 14 3 25 7 25 4 0 3 11 -2 25 -6 16 -6 25 0 25 5 0 6 10 2 23 -9 27 -9
48 1 64 4 6 3 14 -2 18 -6 3 -7 15 -2 28 5 12 5 32 0 44 -4 13 -4 25 1 28 9 5
6 43 -4 53 -3 2 -1 13 5 23 5 11 6 19 2 19 -4 0 -8 14 -8 30 0 17 2 30 5 30 6
0 3 88 -4 106 -3 8 -1 14 4 14 6 0 6 9 1 23 -5 13 -5 30 -1 37 5 8 5 21 0 30
-5 9 -4 23 1 33 6 9 6 17 2 17 -4 0 -8 14 -8 30 0 17 2 30 5 30 6 0 3 88 -4
106 -3 8 -1 14 4 14 6 0 6 9 0 24 -5 13 -7 26 -4 29 7 7 8 167 1 174 -4 3 -2
14 3 24 7 11 7 20 0 24 -6 3 -6 15 0 30 5 13 6 26 2 29 -9 5 -8 59 2 74 3 6 2
13 -3 17 -6 3 -7 15 -2 28 5 12 5 31 1 42 -4 11 -5 24 -2 29 6 11 8 86 2 86
-3 0 -5 11 -5 25 0 14 4 25 8 25 5 0 5 4 2 10 -9 15 -12 80 -3 80 4 0 3 11 -2
25 -6 16 -6 25 0 25 5 0 6 10 2 23 -9 27 -9 48 1 64 4 6 3 14 -2 18 -6 3 -7
15 -2 28 5 12 5 31 1 42 -4 11 -5 24 -2 29 7 12 5 176 -2 183 -3 3 -1 14 4 24
7 11 7 20 0 24 -6 3 -6 15 0 30 5 14 5 27 0 30 -5 3 -5 18 0 34 4 15 4 34 0
42 -5 7 -4 21 1 31 5 10 6 18 2 18 -4 0 -8 14 -8 30 0 17 2 30 5 30 6 0 3 88
-4 106 -3 8 -1 14 4 14 6 0 6 9 1 23 -5 13 -5 30 -1 37 5 8 5 21 0 30 -5 9 -4
23 1 33 6 9 6 17 2 17 -4 0 -8 14 -8 30 0 17 2 30 5 30 6 0 3 88 -4 106 -3 8
-1 14 4 14 6 0 6 10 2 23 -9 23 -8 56 0 79 3 7 2 22 -2 33 -4 11 -3 28 2 38 5
10 5 17 -1 17 -5 0 -6 14 -1 34 4 19 4 40 -1 47 -4 7 -3 21 2 30 6 11 5 20 -1
24 -6 4 -6 15 0 30 5 14 6 25 2 25 -4 0 -7 11 -7 25 0 14 3 25 7 25 4 0 3 11
-2 25 -6 16 -6 25 0 25 5 0 6 10 2 23 -9 27 -9 48 1 64 4 6 3 14 -2 18 -6 3
-7 15 -2 28 5 12 5 31 1 42 -4 11 -3 25 2 32 5 7 5 14 -1 17 -6 4 -7 16 -2 29
5 12 5 31 1 42 -4 11 -3 28 2 38 5 10 5 17 -1 17 -5 0 -6 14 -1 34 4 19 4 40
-1 47 -4 7 -3 21 2 30 6 11 5 20 -1 24 -6 4 -6 15 0 30 5 14 6 25 2 25 -4 0
-7 11 -7 25 0 14 3 25 7 25 4 0 3 11 -2 25 -6 16 -6 25 0 25 5 0 6 10 2 23 -9
27 -9 48 1 64 4 6 3 14 -2 18 -6 3 -7 15 -2 28 5 12 5 31 1 42 -4 11 -3 25 2
32 5 7 5 14 -1 17 -6 4 -7 16 -2 29 5 12 5 31 1 42 -4 11 -3 28 2 38 5 10 5
17 -1 17 -5 0 -6 14 -1 34 4 19 4 40 -1 47 -4 7 -3 21 2 30 6 11 5 20 -1 24
-6 4 -6 15 0 30 5 14 6 25 2 25 -4 0 -7 11 -7 25 0 14 3 25 7 25 4 0 3 11 -2
25 -6 16 -6 25 0 25 5 0 6 10 2 23 -9 27 -9 48 1 64 4 6 3 14 -2 18 -6 3 -7
15 -2 28 5 12 5 31 1 42 -4 11 -3 25 2 32 5 7 5 14 -1 17 -6 4 -7 16 -2 29 5
12 5 31 1 42 -4 11 -3 28 2 38 5 10 5 17 -1 17 -5 0 -6 14 -1 34 4 19 4 40 -1
47 -4 7 -3 21 2 30 6 11 5 20 -1 24 -6 4 -6 15 0 30 5 14 6 25 2 25 -4 0 -7
11 -7 25 0 14 3 25 7 25 4 0 3 11 -2 25 -6 16 -6 25 0 25 5 0 6 10 2 23 -9 27
-9 48 1 64 4 6 3 14 -2 18 -6 3 -7 15 -2 28 5 12 5 32 0 44 -4 13 -4 25 1 28
9 5 6 43 -4 53 -3 2 -1 13 5 23 5 11 6 19 2 19 -4 0 -8 14 -8 30 0 17 2 30 5
30 6 0 3 88 -4 106 -3 8 -1 14 4 14 6 0 6 9 1 23 -5 13 -5 30 -1 37 5 8 5 21
0 30 -5 9 -4 23 1 33 6 9 6 17 2 17 -4 0 -8 14 -8 30 0 17 2 30 5 30 6 0 3 88
-4 106 -3 8 -1 14 4 14 5 0 6 9 1 22 -4 13 -5 35 -1 49 4 15 4 32 0 40 -5 7
-5 20 0 29 5 9 5 22 0 30 -5 8 -6 18 -4 22 3 4 7 18 9 30 5 24 22 38 45 37 8
-1 157 -1 331 0 l316 1 0 198 c0 108 -3 202 -7 207 -11 13 -1777 12 -1789 -1
-5 -5 -18 -36 -29 -69 -11 -33 -41 -118 -67 -190 -25 -71 -47 -134 -48 -140
-1 -5 -4 -12 -7 -15 -3 -3 -14 -30 -24 -60 -26 -76 -190 -532 -237 -660 -21
-58 -39 -109 -39 -114 0 -4 -6 -22 -14 -39 -8 -18 -21 -52 -30 -77 -8 -25 -27
-76 -41 -115 -21 -56 -48 -135 -60 -175 -2 -6 -23 -58 -32 -80 -3 -8 -7 -17
-8 -20 0 -3 -12 -36 -25 -75 -13 -38 -25 -72 -25 -75 -1 -3 -6 -16 -12 -30
-16 -35 -25 -62 -28 -80 -2 -8 -22 -64 -45 -125 -63 -167 -88 -237 -96 -268
-3 -15 -10 -30 -15 -33 -5 -3 -9 -12 -9 -20 0 -9 -12 -45 -26 -81 -14 -35 -27
-70 -28 -76 -2 -7 -6 -19 -9 -27 -4 -8 -36 -98 -72 -200 -36 -102 -68 -192
-72 -200 -3 -8 -7 -19 -9 -25 -1 -5 -26 -73 -54 -150 -29 -77 -53 -144 -54
-150 -2 -5 -6 -18 -9 -27 -4 -10 -10 -26 -14 -35 -3 -10 -7 -25 -9 -33 -2 -8
-8 -23 -13 -35 -6 -11 -24 -58 -40 -105 -31 -92 -187 -525 -198 -550 -3 -8 -7
-19 -9 -25 -1 -5 -21 -62 -44 -125 -23 -63 -58 -160 -77 -215 -19 -55 -38
-109 -43 -120 -17 -40 -60 -161 -60 -169 0 -4 -6 -22 -14 -39 -22 -49 -136
-373 -136 -386 0 -6 -5 -11 -12 -11 -6 0 -9 -3 -6 -6 4 -3 -10 -49 -29 -102
-19 -53 -48 -133 -63 -177 -16 -44 -45 -125 -65 -180 -21 -55 -41 -114 -46
-132 -6 -18 -14 -35 -19 -38 -5 -3 -7 -12 -3 -20 3 -8 -1 -15 -8 -15 -7 0 -10
-3 -6 -6 3 -3 -3 -29 -15 -58 -11 -28 -21 -55 -23 -61 -1 -5 -5 -19 -9 -30 -5
-11 -12 -32 -18 -47 -11 -29 -28 -38 -28 -16 0 10 -26 87 -57 168 -4 8 -7 17
-7 20 -1 3 -4 10 -7 15 -4 6 -14 35 -24 65 -10 30 -23 69 -30 85 -7 17 -46
120 -85 230 -39 110 -76 209 -81 220 -8 18 -32 84 -103 285 -15 41 -31 84 -36
95 -23 56 -60 157 -60 166 0 6 -7 25 -15 42 -8 18 -41 106 -74 197 -33 91 -70
190 -81 220 -12 30 -23 62 -25 70 -2 8 -21 60 -41 115 -35 96 -43 117 -63 168
-5 12 -14 38 -21 57 -7 19 -16 45 -21 58 -5 12 -13 32 -18 45 -5 12 -16 42
-24 67 -25 73 -128 353 -137 375 -5 11 -27 72 -50 135 -22 63 -43 122 -47 130
-3 8 -7 17 -8 20 -1 3 -5 13 -9 22 -4 9 -8 22 -10 30 -1 7 -11 38 -23 68 -23
60 -35 92 -38 100 -1 3 -7 18 -13 33 -7 15 -15 40 -18 54 -4 15 -13 38 -20 52
-8 14 -14 32 -14 39 0 7 -4 20 -9 30 -5 9 -19 44 -31 77 -12 33 -26 69 -32 80
-5 12 -10 27 -12 35 -2 8 -6 24 -11 35 -32 84 -68 182 -70 190 -1 6 -6 21 -12
35 -5 14 -23 61 -38 105 -16 44 -35 89 -42 101 -7 11 -11 23 -8 26 3 2 -13 49
-35 104 -22 54 -40 104 -40 110 0 5 -9 29 -20 52 -11 22 -20 45 -20 49 0 4
-16 51 -36 103 -20 52 -37 100 -38 105 -2 6 -8 23 -14 38 -7 15 -15 39 -18 53
-3 13 -10 27 -15 30 -5 3 -9 13 -9 23 0 10 -9 39 -21 65 -11 26 -22 55 -24 64
-2 9 -27 78 -55 152 -28 74 -62 169 -77 210 -14 41 -31 89 -38 105 -7 17 -19
46 -25 65 -13 37 -40 111 -109 298 -22 61 -59 163 -82 225 -22 61 -44 116 -49
121 -9 9 -1776 15 -1789 6z"/>
<path d="M34468 25879 c-6 -4 -36 -83 -68 -175 -31 -93 -60 -176 -63 -184 -3
-8 -8 -24 -12 -35 -4 -11 -9 -27 -10 -35 -1 -8 -12 -40 -25 -70 -12 -30 -24
-66 -27 -80 -2 -13 -9 -30 -15 -37 -6 -7 -7 -13 -3 -13 4 0 1 -7 -6 -17 -8 -9
-12 -17 -10 -17 5 -1 -6 -42 -19 -71 -5 -11 -32 -90 -60 -175 -28 -85 -54
-162 -57 -170 -3 -8 -7 -19 -9 -25 -3 -12 -62 -183 -71 -205 -3 -8 -7 -19 -8
-25 -2 -5 -12 -37 -24 -70 -132 -384 -159 -465 -154 -465 3 0 0 -6 -6 -14 -7
-8 -14 -22 -16 -32 -2 -11 -22 -71 -44 -134 -144 -419 -232 -676 -234 -685 -2
-5 -6 -16 -10 -22 -5 -7 -5 -13 -1 -13 3 0 -1 -11 -10 -25 -9 -14 -14 -30 -11
-35 3 -5 1 -11 -5 -15 -5 -3 -10 -12 -10 -20 0 -8 -5 -26 -12 -42 -6 -15 -12
-32 -14 -38 -1 -5 -50 -149 -109 -320 -58 -170 -122 -357 -141 -415 -19 -58
-39 -114 -44 -125 -8 -20 -80 -230 -84 -250 -2 -5 -8 -23 -14 -38 -7 -16 -12
-30 -12 -33 0 -2 -25 -77 -56 -167 -31 -89 -57 -166 -58 -172 -1 -5 -8 -20
-14 -32 -7 -13 -11 -23 -8 -23 2 0 -4 -24 -15 -52 -11 -29 -49 -141 -85 -248
-36 -107 -70 -201 -76 -207 -6 -7 -8 -13 -5 -13 4 0 -22 -84 -69 -220 -3 -8
-5 -16 -4 -18 0 -1 -7 -16 -15 -32 -9 -17 -14 -30 -11 -30 2 0 -7 -30 -20 -67
-14 -38 -54 -156 -91 -263 -36 -107 -70 -201 -76 -207 -5 -7 -7 -13 -4 -13 3
0 -12 -51 -34 -112 -22 -62 -42 -124 -45 -137 -3 -13 -12 -37 -20 -52 -8 -16
-12 -29 -8 -29 4 0 2 -6 -3 -12 -5 -7 -18 -40 -28 -73 -10 -33 -20 -64 -24
-70 -3 -5 -6 -14 -7 -20 -1 -5 -19 -57 -39 -115 -52 -151 -69 -204 -67 -212 1
-5 -2 -8 -6 -8 -4 0 -8 -8 -9 -17 -1 -10 -7 -31 -14 -48 -7 -16 -13 -33 -14
-37 -2 -5 -4 -10 -5 -13 -1 -3 -3 -8 -4 -12 -1 -5 -10 -33 -21 -63 -10 -30
-20 -59 -21 -65 -6 -22 -131 -382 -136 -391 -3 -5 -9 -23 -12 -41 -8 -35 -41
-76 -71 -88 -11 -5 -140 -9 -287 -9 -188 -1 -271 -5 -279 -13 -6 -6 -10 -29
-7 -52 2 -23 0 -41 -4 -41 -3 0 -3 -12 1 -27 4 -16 5 -39 1 -53 -4 -14 -3 -34
1 -46 4 -11 4 -26 -1 -33 -4 -7 -4 -28 0 -47 4 -19 4 -34 -1 -34 -5 0 -5 -10
0 -22 4 -13 6 -29 4 -35 -4 -10 192 -13 955 -13 l960 0 -1 75 c-1 41 2 75 6
75 5 0 5 5 2 11 -10 15 -11 89 -2 89 5 0 5 5 1 12 -11 17 -10 128 1 128 5 0 3
6 -3 12 -10 10 -99 13 -360 14 -191 1 -348 2 -349 3 0 0 7 23 17 50 11 27 16
51 13 55 -4 3 -1 6 5 6 7 0 11 3 11 8 -1 4 0 10 1 15 1 4 4 12 5 17 1 6 4 12
5 15 1 3 3 8 5 13 1 4 4 14 8 22 3 8 76 227 162 485 86 259 160 479 165 490 8
20 19 53 20 58 0 1 25 76 56 167 31 91 57 170 59 175 1 6 7 23 13 38 7 16 12
34 12 41 0 6 5 17 12 24 7 7 9 12 5 12 -4 0 0 17 9 38 8 20 17 44 19 52 4 14
46 140 105 315 l27 80 1169 0 c643 0 1178 -1 1190 -3 14 -3 24 -16 33 -50 7
-26 16 -56 21 -67 11 -27 22 -58 26 -70 1 -5 41 -125 89 -265 47 -140 88 -262
90 -270 2 -8 11 -32 19 -52 9 -21 13 -38 9 -38 -4 0 -2 -5 5 -12 7 -7 12 -20
12 -30 0 -10 4 -26 10 -36 8 -14 163 -467 175 -512 2 -8 20 -62 40 -120 20
-58 38 -113 40 -122 2 -9 9 -26 15 -37 6 -12 8 -21 4 -21 -3 0 -1 -6 5 -13 6
-8 12 -23 14 -35 2 -12 6 -25 10 -28 4 -4 7 -17 7 -29 0 -11 4 -25 8 -31 5 -5
15 -29 22 -54 8 -25 18 -51 23 -57 5 -7 7 -13 3 -13 -3 0 3 -24 15 -52 11 -29
22 -64 25 -77 3 -13 9 -32 14 -42 25 -46 30 -45 -327 -44 -186 1 -343 0 -349
-2 -7 -3 -11 -72 -11 -208 l0 -205 1271 2 1271 3 1 195 c0 107 -1 200 -3 205
-2 7 -99 10 -271 10 -147 -1 -276 1 -288 3 -45 8 -73 47 -109 153 -20 57 -41
121 -46 143 -5 21 -16 51 -24 67 -9 16 -15 30 -15 31 1 2 -1 10 -4 18 -30 92
-49 148 -56 165 -11 29 -61 177 -65 195 -2 8 -4 16 -5 18 -2 1 -3 5 -5 10 -1
4 -4 14 -7 22 -17 45 -21 56 -24 67 -2 11 -22 68 -42 123 -3 8 -6 17 -7 20 -1
3 -5 13 -8 23 -13 33 -19 52 -23 77 -3 13 -9 29 -14 35 -5 7 -11 20 -13 31 -2
10 -7 26 -10 34 -11 29 -49 142 -52 154 -1 6 -7 25 -14 41 -7 17 -15 42 -18
58 -3 15 -10 30 -14 33 -5 3 -9 14 -9 25 0 10 -4 27 -10 37 -9 17 -127 359
-157 457 -8 28 -19 55 -23 60 -4 6 -11 26 -15 45 -4 19 -10 40 -13 45 -4 6 -7
15 -8 20 -2 6 -28 82 -59 170 -30 88 -57 167 -60 175 -5 22 -76 232 -85 255
-13 32 -82 229 -84 240 -1 6 -7 24 -13 40 -12 33 -20 56 -22 67 -1 7 -9 30
-37 103 -4 11 -8 25 -10 30 -1 6 -21 64 -44 130 -23 66 -43 125 -44 130 -3 10
-8 23 -29 80 -6 17 -12 35 -13 40 -1 6 -14 44 -29 85 -14 41 -27 80 -29 85 -2
6 -6 17 -9 25 -3 8 -31 92 -63 185 -31 94 -61 181 -67 195 -9 23 -13 34 -20
65 -1 6 -5 15 -8 20 -3 6 -25 69 -48 140 -24 72 -46 139 -51 150 -9 21 -119
341 -176 515 -20 58 -39 114 -44 125 -9 20 -44 126 -45 135 0 3 -5 19 -12 35
-31 81 -27 72 -38 110 -4 17 -11 35 -16 40 -4 6 -7 12 -7 15 1 5 -29 102 -39
130 -4 8 -7 17 -8 20 -1 3 -7 18 -13 33 -7 16 -12 35 -12 43 0 8 -4 22 -9 32
-9 15 -22 49 -26 62 0 3 -18 57 -40 120 -22 63 -40 118 -41 123 -1 4 -3 9 -4
12 -1 3 -3 8 -5 13 -1 4 -4 14 -8 22 -7 18 -118 341 -121 355 -2 6 -8 23 -14
38 -7 16 -12 34 -12 41 0 7 -3 16 -7 20 -4 3 -8 12 -9 19 -2 11 -49 154 -61
187 -4 8 -7 17 -8 20 -4 12 -17 47 -26 68 -5 13 -9 32 -9 42 0 11 -4 20 -10
20 -5 0 -9 3 -8 8 3 12 -155 479 -167 490 -7 8 -505 8 -517 1z m126 -2324 c2
-5 4 -12 4 -15 0 -3 10 -29 21 -57 11 -29 18 -53 15 -53 -4 0 -2 -6 3 -12 6
-7 24 -58 42 -113 18 -55 35 -107 38 -115 4 -8 7 -18 8 -22 2 -5 3 -9 5 -10 1
-2 3 -10 5 -18 2 -8 29 -89 60 -180 48 -141 116 -344 120 -360 1 -3 4 -12 8
-20 8 -20 177 -521 182 -540 2 -8 27 -82 55 -165 28 -82 55 -163 60 -180 14
-48 71 -218 80 -240 9 -20 120 -352 120 -358 0 -2 -448 -3 -995 -3 -656 1
-995 4 -995 11 0 14 29 115 39 140 15 33 24 59 28 79 2 10 10 33 17 50 8 17
16 40 19 51 3 11 42 126 87 255 45 129 87 255 95 280 7 25 31 95 52 155 22 61
41 115 42 120 11 34 14 43 24 70 7 17 12 32 13 35 4 23 18 67 24 75 4 6 11 24
15 40 12 44 12 45 15 50 1 3 3 8 5 13 1 4 4 14 7 22 15 37 60 173 62 184 1 6
4 16 7 21 11 17 43 120 41 128 -1 4 3 7 10 7 6 0 9 3 5 6 -4 4 81 272 110 344
4 8 7 17 8 20 0 3 9 30 20 60 10 30 20 60 21 65 2 6 39 116 84 245 45 129 84
244 87 255 2 11 8 29 13 40 13 31 33 100 31 104 -2 2 3 7 10 11 9 6 34 -57 91
-229 43 -130 80 -240 82 -246z"/>
</g>
</svg>
